# xmcd
#
# Track frame offsets:
#	150
#	19807
#	31965
#	51702
#	65622
#	92937
#	114105
#	128597
#	146002
#	163585
#	188587
#	204587
#	223112
#	245030
#	261357
#	281820
#	304017
#
# Disc length: 4282 seconds
#
# Revision: 1
# Processed by: cddbd v1.4PL0 Copyright (c) Steve Scherf et al.
# Submitted via: audiograbber 1.80
#
DISCID=0510b811
DTITLE=Trisha Yearwood - That's What We Like About Trisha - Live In New York 19
DTITLE=93
DYEAR=1900
DGENRE=
TTITLE0=She's In Love With The Boy (live)
TTITLE1=That's What I Like About You (live)
TTITLE2=The Woman Before Me (live)
TTITLE3=Wrong Side Of Memphis (live)
TTITLE4=For Reasons I've Forgotten (live)
TTITLE5=You Say You Will (live)
TTITLE6=Stay Here and Drink (live)
TTITLE7=Real Man (live)
TTITLE8=Down On My Knees (live)
TTITLE9=Walk Away Joe (live)
TTITLE10=Trying To Get To You (live)
TTITLE11=Mr. Radio (live)
TTITLE12=The Song Remembers When (live)
TTITLE13=One In A Row (live)
TTITLE14=Better Your Heart Than Mine (live)
TTITLE15=Love Has No Pride (live)
TTITLE16=Tennessee Rose (live)
EXTD=
EXTT0=
EXTT1=
EXTT2=
EXTT3=
EXTT4=
EXTT5=
EXTT6=
EXTT7=
EXTT8=
EXTT9=
EXTT10=
EXTT11=
EXTT12=
EXTT13=
EXTT14=
EXTT15=
EXTT16=
PLAYORDER=
